<svg width="19" height="19" viewBox="0 0 19 19" fill="none" xmlns="http://www.w3.org/2000/svg">
<path d="M1.19867 6.42787C1.25269 6.04637 1.28446 5.66113 1.36707 5.28711C1.80236 3.32725 2.7778 1.89476 4.44272 1.27763C6.22201 0.615619 7.77254 1.15047 9.05618 2.74379C9.20869 2.9308 9.34214 3.13651 9.49147 3.34596C9.63763 3.14399 9.77108 2.94202 9.92041 2.75127C10.629 1.85362 11.4741 1.22901 12.5195 1.07192C14.1335 0.828809 15.5157 1.40854 16.5769 2.87095C17.6381 4.33337 17.9495 6.06133 17.7048 7.93891C17.5492 9.12829 17.0884 10.1643 16.4848 11.1181C15.6936 12.371 14.7277 13.4258 13.7332 14.4468C12.5608 15.6474 11.3788 16.8406 10.2 18.0337C9.74566 18.4937 9.25953 18.5124 8.82424 18.0711C7.28642 16.5002 5.74542 14.9368 4.22666 13.3397C3.45457 12.5319 2.76509 11.6267 2.19635 10.6019C1.66256 9.63321 1.30353 8.5897 1.22091 7.43024C1.21774 7.38536 1.20503 7.34422 1.1955 7.30307C1.19867 7.01134 1.19867 6.7196 1.19867 6.42787ZM9.4883 17.237C9.5296 17.1996 9.56455 17.1697 9.59633 17.136C10.9086 15.8008 12.2271 14.4768 13.5267 13.1303C14.4354 12.1878 15.2996 11.1891 15.97 9.99227C16.6118 8.85151 16.9264 7.60977 16.7802 6.23338C16.6214 4.74853 16.0812 3.518 14.9628 2.74379C13.9207 2.02193 12.8181 1.93216 11.7124 2.56052C11.0579 2.93079 10.5749 3.53297 10.1682 4.23238C10.1111 4.33337 10.057 4.43809 9.99667 4.53534C9.72977 4.96546 9.25318 4.96172 8.9831 4.53908C8.74798 4.1688 8.53192 3.77608 8.26185 3.43946C7.39444 2.35855 6.32051 1.93965 5.08453 2.25382C3.75006 2.59418 2.87312 3.58907 2.43147 5.08514C1.91675 6.82433 2.1614 8.46253 3.01292 9.98853C3.54036 10.9348 4.18853 11.7651 4.90025 12.5169C6.07586 13.7624 7.27688 14.9779 8.4652 16.201C8.80517 16.5488 9.14515 16.8892 9.4883 17.237Z" fill="black" stroke="black" stroke-width="0.5" stroke-miterlimit="10"/>
</svg>
