<svg width="15" height="19" viewBox="0 0 15 19" fill="none" xmlns="http://www.w3.org/2000/svg">
<path d="M10.545 9.37421C11.4249 9.96312 12.0977 10.7714 12.6083 11.7746C13.1534 12.8508 13.4812 14.0206 13.6296 15.2512C13.7262 16.0554 13.7572 16.8717 13.7986 17.684C13.8228 18.143 13.5985 18.3907 13.2052 18.3907C9.3823 18.3907 5.5594 18.3907 1.7365 18.3907C1.33627 18.3907 1.1258 18.147 1.12925 17.6718C1.1396 16.0351 1.31557 14.4348 1.84346 12.9077C2.3541 11.4334 3.13731 10.2271 4.3242 9.41482C4.34145 9.40264 4.3587 9.38233 4.37596 9.36609C2.61977 7.18913 3.0131 3.86276 4.74513 2.16506C6.39091 0.544524 8.7992 0.621692 10.3622 2.35189C11.9596 4.11864 12.2219 7.22162 10.545 9.37421ZM12.7325 17.1438C12.667 15.5071 12.4496 13.9271 11.7492 12.4934C11.2799 11.5309 10.6313 10.7917 9.77217 10.3084C9.66867 10.2474 9.59276 10.2515 9.48925 10.3165C8.1333 11.1613 6.77389 11.1491 5.42139 10.3043C5.33513 10.2515 5.26613 10.2393 5.17987 10.2921C4.50707 10.6698 3.94467 11.2059 3.50304 11.9126C2.86129 12.9361 2.52316 14.1018 2.3541 15.3446C2.27474 15.9335 2.23334 16.5346 2.17123 17.1438C5.70776 17.1438 9.20978 17.1438 12.7325 17.1438ZM10.6313 5.97068C10.6313 3.91556 9.21323 2.23817 7.4674 2.23817C5.72156 2.23817 4.2966 3.90744 4.2966 5.96255C4.2966 8.01767 5.71466 9.69507 7.4605 9.69507C9.20633 9.69913 10.6313 8.02579 10.6313 5.97068Z" fill="black" stroke="black" stroke-width="0.5" stroke-miterlimit="10"/>
</svg>
