<svg width="16" height="19" viewBox="0 0 16 19" fill="none" xmlns="http://www.w3.org/2000/svg">
<path d="M11.1494 13.958C9.56018 15.409 7.78056 15.9184 5.82091 15.409C4.31828 15.0218 3.10648 14.0681 2.19937 12.6049C0.32281 9.58082 0.682892 5.43998 3.03724 2.88048C5.27388 0.447328 8.84695 0.373967 11.184 2.66855C13.6941 5.1343 14.2412 9.69901 12.0253 12.931C12.0669 12.984 12.1119 13.041 12.1569 13.094C13.1783 14.2963 14.2031 15.4986 15.221 16.7091C15.3249 16.8314 15.408 17.0025 15.4426 17.1696C15.5049 17.4835 15.363 17.7728 15.131 17.9155C14.8921 18.0622 14.6186 18.0174 14.4143 17.7851C14.1131 17.4386 13.8188 17.0881 13.5245 16.7376C12.7697 15.8532 12.0184 14.9647 11.2636 14.0803C11.229 14.0396 11.1909 14.0029 11.1494 13.958ZM7.21621 2.41993C4.48101 2.41178 2.23745 5.04056 2.2236 8.27662C2.20976 11.5086 4.44985 14.1618 7.1989 14.17C9.93756 14.1781 12.188 11.5493 12.2019 8.32552C12.2157 5.07725 9.97911 2.42808 7.21621 2.41993Z" fill="black" stroke="black" stroke-width="0.5" stroke-miterlimit="10"/>
</svg>
