<svg width="17" height="19" viewBox="0 0 17 19" fill="none" xmlns="http://www.w3.org/2000/svg">
<path d="M16.6994 4.78095C16.5064 5.47045 16.3134 6.15995 16.1237 6.84945C15.6178 8.69464 15.1186 10.5437 14.6161 12.3889C14.4963 12.8277 14.3598 12.9492 13.9704 12.9492C11.5376 12.9492 9.10484 12.9492 6.67205 12.9452C6.5356 12.9452 6.4757 12.9923 6.43576 13.145C6.31595 13.5642 6.18283 13.9795 6.04638 14.4339C6.12626 14.4339 6.18949 14.4339 6.25272 14.4339C8.81198 14.4339 11.3746 14.4339 13.9338 14.4339C14.0004 14.4339 14.0669 14.4339 14.1335 14.4418C14.3631 14.477 14.5229 14.6886 14.5162 14.9393C14.5096 15.1939 14.3432 15.4016 14.1169 15.4212C13.9671 15.4329 13.814 15.4251 13.631 15.4251C13.9538 15.907 14.0803 16.4162 13.9771 16.9843C13.8972 17.4309 13.6942 17.7952 13.3747 18.0577C12.799 18.5317 12.0568 18.5161 11.4711 17.9049C10.902 17.3134 10.8554 16.4437 11.3513 15.4408C10.273 15.4408 9.19803 15.4408 8.10311 15.4408C8.44257 15.9775 8.56903 16.5494 8.38266 17.188C8.27284 17.5641 8.07315 17.8658 7.79693 18.0851C7.20454 18.5553 6.43243 18.473 5.90993 17.8775C5.46398 17.3721 5.1944 16.4045 5.8234 15.4251C5.70692 15.4251 5.61041 15.4251 5.51057 15.4251C5.1345 15.4172 4.95146 15.1156 5.07459 14.6964C5.23101 14.1754 5.39076 13.6543 5.5505 13.1372C5.56714 13.0824 5.58045 13.0275 5.60042 12.9492C5.52055 12.9492 5.45399 12.9492 5.39076 12.9492C5.10788 12.9413 4.91485 12.7533 4.86493 12.432C4.68854 11.3155 4.51548 10.199 4.34243 9.08248C4.03957 7.13935 3.7334 5.19622 3.43387 3.24917C3.41723 3.13948 3.37729 3.08855 3.29077 3.04937C2.64513 2.75555 1.99949 2.4539 1.35385 2.15224C1.08428 2.02688 0.954486 1.74481 1.01439 1.45491C1.09094 1.09057 1.39379 0.906442 1.70995 1.04748C2.11597 1.22769 2.51866 1.41965 2.92135 1.60769C3.27413 1.76832 3.62357 1.93677 3.97635 2.09348C4.19932 2.19142 4.32246 2.37554 4.36572 2.64586C4.66525 4.56548 4.96477 6.48903 5.26429 8.40866C5.43069 9.47816 5.5971 10.5477 5.76017 11.6172C5.77681 11.7308 5.81675 11.77 5.91992 11.77C8.47918 11.766 11.0418 11.766 13.601 11.77C13.6842 11.77 13.7375 11.7543 13.7674 11.6407C14.3432 9.51734 14.9223 7.39791 15.498 5.27457C15.5013 5.26282 15.498 5.25107 15.498 5.21581C15.3848 5.20797 15.2717 5.19622 15.1585 5.18838C13.3714 5.09828 11.5842 5.01209 9.79708 4.92199C8.68884 4.86714 7.58061 4.80838 6.47237 4.74961C6.15621 4.73394 5.94654 4.4793 5.95652 4.13063C5.96651 3.79372 6.19282 3.55474 6.50232 3.5665C7.00153 3.58608 7.50406 3.61742 8.00326 3.64093C9.07156 3.69578 10.1365 3.75454 11.2048 3.80547C12.8689 3.89166 14.5329 3.97393 16.1969 4.06011C16.4631 4.07187 16.6096 4.25599 16.6994 4.53023C16.6994 4.6125 16.6994 4.69477 16.6994 4.78095ZM12.5094 15.8208C12.14 15.8168 11.8338 16.1694 11.8305 16.6004C11.8272 17.0313 12.1367 17.3917 12.5028 17.3917C12.8655 17.3917 13.1684 17.0431 13.1717 16.616C13.1784 16.1851 12.8788 15.8247 12.5094 15.8208ZM7.6272 16.6043C7.6272 16.1655 7.32767 15.8208 6.9516 15.8208C6.58552 15.8247 6.29266 16.1694 6.28933 16.6004C6.286 17.0352 6.58552 17.3917 6.95826 17.3956C7.32767 17.3956 7.6272 17.0431 7.6272 16.6043Z" fill="black" stroke="black" stroke-width="0.5" stroke-miterlimit="10"/>
</svg>
